<svg height="512pt" viewBox="0 -149 512 512" width="512pt" xmlns="http://www.w3.org/2000/svg"><path d="m320 106.449219c0 35.347656-28.652344 64-64 64s-64-28.652344-64-64c0-35.347657 28.652344-64 64-64s64 28.652343 64 64zm0 0"/><path d="m504.085938 89.679688-106.667969-85.332032c-.574219-.46875-1.214844-.894531-1.832031-1.28125-14.65625-8.660156-32.917969 2.242188-32.917969 18.050782v170.664062c0 11.757812 9.578125 21.335938 21.332031 21.335938 4.03125 0 7.828125-1.066407 11.5625-3.285157.640625-.386719 1.257812-.8125 1.835938-1.28125l108.03125-86.570312c4.246093-4.265625 6.570312-9.769531 6.570312-15.53125s-2.324219-11.265625-7.914062-16.769531zm0 0"/><path d="m116.4375 3.066406c-.640625.386719-1.257812.8125-1.835938 1.28125l-108.03125 86.570313c-4.246093 4.265625-6.570312 9.769531-6.570312 15.53125s2.324219 11.265625 7.914062 16.769531l106.667969 85.332031c.574219.46875 1.214844.894531 1.832031 1.28125 3.757813 2.21875 7.554688 3.285157 11.585938 3.285157 11.753906 0 21.332031-9.578126 21.332031-21.335938v-170.664062c0-15.808594-18.238281-26.730469-32.894531-18.050782zm0 0"/></svg>